<svg width="38" height="39" viewBox="0 0 38 39" fill="none" xmlns="http://www.w3.org/2000/svg">
<g clip-path="url(#clip0_1_278)">
<path d="M0.417175 19.9283C0.417175 9.40893 8.71528 0.878753 18.9598 0.856489C29.2195 0.834226 37.5189 9.278 37.5825 19.8075C37.6189 25.8377 34.9283 31.2242 30.7021 34.7444C30.4875 34.9232 30.2064 34.9926 29.9353 34.9375C26.5135 34.2411 22.8332 33.8624 19 33.8624C15.155 33.8624 11.4637 34.2435 8.0328 34.9439C7.78197 34.9951 7.52211 34.9305 7.32324 34.7654C3.11078 31.2691 0.417175 25.9215 0.417175 19.9283Z" fill="#01CFFA"/>
<path d="M20.517 32.3055H17.4831C16.4358 32.3055 15.5869 31.4342 15.5869 30.3594C15.5869 29.2846 16.4358 28.4133 17.4831 28.4133H20.517C21.5642 28.4133 22.4132 29.2846 22.4132 30.3594C22.4132 31.4342 21.5642 32.3055 20.517 32.3055Z" fill="#0494FB"/>
<path d="M21.9225 27.5805H16.0776C11.1568 27.5805 7.16769 23.4864 7.16769 18.4361C7.16769 13.3858 11.1568 9.29175 16.0776 9.29175H21.9225C26.8433 9.29175 30.8324 13.3858 30.8324 18.4361C30.8324 23.4864 26.8433 27.5805 21.9225 27.5805ZM26.9349 29.5809H11.0652C8.33613 29.5809 6.5854 32.2796 7.27759 34.7274C10.4753 37.3987 14.5555 39.0001 19 39.0001C23.4446 39.0001 27.5248 37.3987 30.7225 34.7274C31.4147 32.2796 29.664 29.5809 26.9349 29.5809Z" fill="#C43286"/>
<path d="M10.2876 18.8773C10.0517 18.8773 9.85695 18.6827 9.85687 18.4406C9.85687 18.4391 9.85687 18.4376 9.85687 18.4361C9.85687 13.3858 13.846 9.29175 18.7668 9.29175H21.9225C26.8433 9.29175 30.8324 13.3858 30.8324 18.4361C30.8324 18.584 30.8289 18.7311 30.8222 18.8773H10.2876ZM10.5248 20.045C10.247 20.045 10.04 20.3115 10.1051 20.5887C11.0482 24.6003 14.5683 27.5805 18.7667 27.5805H21.9224C26.3084 27.5805 29.9541 24.3281 30.6948 20.045H10.5248ZM30.7225 34.7273C27.8685 37.1114 24.3117 38.6433 20.4203 38.9451C17.4032 38.7111 14.5873 37.7377 12.1442 36.201C9.2221 34.3631 10.3353 29.7048 13.7605 29.5835C13.8086 29.5818 13.857 29.5809 13.9057 29.5809H26.9349C29.664 29.5809 31.4147 32.2796 30.7225 34.7273ZM17.483 33.9791C17.483 33.6567 17.2283 33.3953 16.9142 33.3953C16.6 33.3953 16.3453 33.6567 16.3453 33.9791V35.3025C16.3453 35.6249 16.6 35.8863 16.9142 35.8863C17.2283 35.8863 17.483 35.6249 17.483 35.3025V33.9791ZM19.5689 33.2785C19.5689 32.9561 19.3142 32.6947 19 32.6947C18.6858 32.6947 18.4311 32.9561 18.4311 33.2785V36.0031C18.4311 36.3255 18.6858 36.5869 19 36.5869C19.3142 36.5869 19.5689 36.3255 19.5689 36.0031V33.2785ZM21.6547 33.9791C21.6547 33.6567 21.4 33.3953 21.0858 33.3953C20.7717 33.3953 20.517 33.6567 20.517 33.9791V35.3025C20.517 35.6249 20.7717 35.8863 21.0858 35.8863C21.4 35.8863 21.6547 35.6249 21.6547 35.3025V33.9791Z" fill="#FC5E93"/>
<path d="M24.3094 19.4611C24.3094 22.4705 21.9323 24.9102 19 24.9102C16.0677 24.9102 13.6906 22.4705 13.6906 19.4611C13.6906 16.4516 16.0677 14.012 19 14.012C21.9323 14.012 24.3094 16.4516 24.3094 19.4611Z" fill="#0ED1B2"/>
<path d="M24.3093 19.4611C24.3093 20.5777 23.9821 21.6159 23.4206 22.4801C22.5786 23.0563 21.567 23.3922 20.479 23.3922C17.5467 23.3922 15.1696 20.9526 15.1696 17.9431C15.1696 16.8265 15.4969 15.7883 16.0583 14.9241C16.9004 14.3479 17.912 14.012 19 14.012C21.9323 14.012 24.3093 16.4516 24.3093 19.4611Z" fill="#00F1A5"/>
<path d="M21.2755 19.4611C21.2755 20.7509 20.2567 21.7964 19 21.7964C17.7433 21.7964 16.7245 20.7509 16.7245 19.4611C16.7245 18.1713 17.7433 17.1257 19 17.1257C20.2567 17.1257 21.2755 18.1713 21.2755 19.4611Z" fill="#00429A"/>
<path d="M20.9987 20.5781C20.6127 21.3039 19.8624 21.7963 19 21.7963C17.7433 21.7963 16.7245 20.7507 16.7245 19.4609C16.7245 18.5759 17.2043 17.8058 17.9115 17.4097C17.735 17.7415 17.6347 18.1221 17.6347 18.5268C17.6347 19.8166 18.6534 20.8621 19.9102 20.8621C20.3045 20.8621 20.6753 20.7592 20.9987 20.5781Z" fill="#012D4E"/>
<path d="M21.6168 17.9431C21.6168 18.5879 21.1074 19.1107 20.479 19.1107C19.8507 19.1107 19.3413 18.5879 19.3413 17.9431C19.3413 17.2982 19.8507 16.7754 20.479 16.7754C21.1074 16.7754 21.6168 17.2982 21.6168 17.9431Z" fill="#F5F0EB"/>
<path d="M9.95902 2.02213L13.6858 8.64699L12.7006 9.23082L8.97375 2.60596C8.5091 2.63399 8.04658 2.39796 7.79802 1.95604C7.44723 1.33243 7.65543 0.534914 8.26305 0.174885C8.87067 -0.185145 9.64766 0.0285373 9.99854 0.652148C10.2471 1.09399 10.2149 1.6231 9.95902 2.02213ZM29.737 0.174885C29.1294 -0.185145 28.3523 0.0285373 28.0015 0.652148C27.753 1.09399 27.785 1.6231 28.041 2.02213L24.3141 8.64699L25.2994 9.23082L29.0262 2.60596C29.4909 2.63399 29.9534 2.39796 30.2019 1.95604C30.5528 1.33235 30.3446 0.534914 29.737 0.174885Z" fill="#012D4E"/>
<path d="M31.032 10.0218C31.3705 10.1675 31.5908 10.5074 31.5908 10.8841C31.5908 11.4005 31.1829 11.8191 30.6798 11.8191H7.32019C6.81702 11.8191 6.40918 11.4005 6.40918 10.8841C6.40918 10.5073 6.62952 10.1675 6.96803 10.0218L13.6473 7.14844L14.0311 4.39096C14.1839 3.2932 15.1 2.47778 16.1805 2.47778C16.633 2.47778 17.0742 2.62289 17.4425 2.89285L17.738 3.10957C18.493 3.66296 19.507 3.66296 20.262 3.10957L20.5575 2.89285C20.9258 2.62289 21.367 2.47778 21.8195 2.47778C22.9 2.47778 23.8161 3.2932 23.9689 4.39096L24.3527 7.14844L31.032 10.0218Z" fill="#0055C7"/>
<path d="M8.09028 11.8191H7.32019C6.81702 11.8191 6.40918 11.4005 6.40918 10.8841C6.40918 10.5073 6.62952 10.1675 6.96803 10.0218L13.6473 7.14844L14.0311 4.39096C14.1839 3.2932 15.1 2.47778 16.1805 2.47778C16.2933 2.47778 16.4054 2.48681 16.5159 2.50456C16.198 2.92383 16.0032 3.445 15.9841 4.01007L15.9083 7.14852L8.47574 11.4463C8.3151 11.5371 8.18411 11.6665 8.09028 11.8191Z" fill="#015081"/>
<path d="M24.1359 5.5918C24.1359 5.5918 24.2204 6.13149 24.2477 6.32984C24.2742 6.52274 24.3526 7.14868 24.3526 7.14868H13.799L14.0156 5.5918H24.1359Z" fill="#003278"/>
<path d="M15.9083 7.14868H13.6473C13.6473 7.14868 13.7141 6.56516 13.746 6.35086C13.7723 6.17462 13.8641 5.5918 13.8641 5.5918H15.946L15.9083 7.14868Z" fill="#012D4E"/>
</g>
<defs>
<clipPath id="clip0_1_278">
<rect width="38" height="39" fill="white"/>
</clipPath>
</defs>
</svg>
