<svg width="32" height="32" viewBox="0 0 32 32" fill="none" xmlns="http://www.w3.org/2000/svg">
<path opacity="0.4" fill-rule="evenodd" clip-rule="evenodd" d="M6.3584 29.5983C6.3584 28.2683 7.43506 27.1917 8.76506 27.1917C10.0792 27.1917 11.1559 28.2683 11.1559 29.5983C11.1559 30.9125 10.0792 31.9892 8.76506 31.9892C7.43506 31.9892 6.3584 30.9125 6.3584 29.5983ZM24.1709 29.5983C24.1709 28.2683 25.2476 27.1917 26.5776 27.1917C27.8917 27.1917 28.9684 28.2683 28.9684 29.5983C28.9684 30.9125 27.8917 31.9892 26.5776 31.9892C25.2476 31.9892 24.1709 30.9125 24.1709 29.5983Z" fill="white"/>
<path fill-rule="evenodd" clip-rule="evenodd" d="M28.9687 7.05254C29.9346 7.05254 30.5679 7.38504 31.2012 8.11337C31.8346 8.8417 31.9454 9.8867 31.8029 10.8351L30.2987 21.2218C30.0137 23.2184 28.3037 24.6893 26.2929 24.6893H9.01873C6.91289 24.6893 5.17123 23.0743 4.99706 20.9859L3.54039 3.72595L1.14956 3.31429C0.516226 3.20345 0.0728926 2.58595 0.183726 1.95262C0.294559 1.30345 0.912059 0.875954 1.56123 0.970954L5.33748 1.54095C5.87581 1.63754 6.27164 2.07929 6.31914 2.61762L6.61998 6.16429C6.66748 6.67254 7.07914 7.05254 7.58581 7.05254H28.9687ZM19.3737 15.2843H23.7596C24.4246 15.2843 24.9471 14.746 24.9471 14.0968C24.9471 13.4318 24.4246 12.9093 23.7596 12.9093H19.3737C18.7087 12.9093 18.1862 13.4318 18.1862 14.0968C18.1862 14.746 18.7087 15.2843 19.3737 15.2843Z" fill="white"/>
</svg>
