<svg width="60" height="38" viewBox="0 0 60 38" fill="none" xmlns="http://www.w3.org/2000/svg">
<circle cx="34" cy="19" r="19" fill="#003278"/>
<g clip-path="url(#clip0_1_262)">
<path d="M60 17.0689V33.1034C60.0002 33.6522 59.7822 34.1785 59.3942 34.5666C59.0061 34.9546 58.4798 35.1725 57.9311 35.1724H32.0689C31.5202 35.1725 30.9939 34.9546 30.6058 34.5666C30.2178 34.1786 29.9998 33.6522 30 33.1035V17.0689C29.9998 16.5202 30.2178 15.9939 30.6058 15.6058C30.9939 15.2177 31.5202 14.9998 32.0689 15H41.3793" fill="#9FC9D3"/>
<g style="mix-blend-mode:multiply" opacity="0.53">
<path d="M33 17.5C32.8123 20.1478 32.965 32.3956 33 32C33.0002 32.5488 33 32.5 33.5 33C34.5 34 35.5488 35.1725 35 35.1724H32.0689C31.5202 35.1725 30.9939 34.9546 30.6058 34.5666C30.2178 34.1786 29.9998 33.6522 30 33.1035V17.0689C29.9998 16.5202 30.2178 15.9939 30.6058 15.6058C30.9939 15.2177 31.5202 14.9998 32.0689 15C32.0689 15 34 15 35 15" fill="#84CCFD"/>
</g>
<path d="M59.4854 14.381C59.7978 14.5292 59.9977 14.8431 60 15.1889V19.9306C59.9447 24.2599 57.8949 28.3216 54.4449 30.9376L51.3774 33.3659C50.9737 33.6828 50.4057 33.6828 50.002 33.3659L46.9345 30.9376C43.4845 28.3215 41.4346 24.2599 41.3793 19.9306V15.1889C41.3816 14.8431 41.5816 14.5292 41.894 14.381L49.8569 10.5184C50.383 10.2641 50.9964 10.2641 51.5224 10.5184L59.4854 14.381Z" fill="#24AE5F"/>
<path d="M50.6896 24.8104C53.2606 24.8104 55.3448 22.7355 55.3448 20.176C55.3448 17.6164 53.2606 15.5415 50.6896 15.5415C48.1187 15.5415 46.0345 17.6164 46.0345 20.176C46.0345 22.7355 48.1187 24.8104 50.6896 24.8104Z" fill="white"/>
<path d="M49.8433 22.1773C49.7061 22.1775 49.5744 22.1229 49.4776 22.0258L48.631 21.1792C48.429 20.9772 48.429 20.6497 48.631 20.4478C48.8329 20.2458 49.1604 20.2458 49.3624 20.4478L49.8433 20.9287L52.0168 18.7551C52.2191 18.5549 52.5451 18.5557 52.7464 18.7569C52.9476 18.9582 52.9485 19.2842 52.7482 19.4865L50.209 22.0257C50.1121 22.1229 49.9805 22.1775 49.8433 22.1773Z" fill="#24AE5F"/>
<path d="M40.8621 31.0174H32.7034C32.4178 31.0174 32.1862 30.7859 32.1862 30.5002C32.1862 30.2145 32.4177 29.9829 32.7034 29.9829H40.8621C41.1477 29.9829 41.3793 30.2145 41.3793 30.5002C41.3793 30.7859 41.1478 31.0174 40.8621 31.0174Z" fill="#003278"/>
<path d="M36.7242 33.0863H32.7034C32.4178 33.0863 32.1862 32.8547 32.1862 32.569C32.1862 32.2833 32.4177 32.0518 32.7034 32.0518H36.7242C37.0098 32.0518 37.2415 32.2833 37.2415 32.569C37.2415 32.8547 37.0098 33.0863 36.7242 33.0863Z" fill="#003278"/>
<path d="M40.0282 26.5366L38.2316 25.6511C38.0005 25.5383 37.8536 25.3039 37.8528 25.0468V24.3518C37.9131 24.2829 37.9698 24.211 38.0228 24.1363C38.2648 23.7974 38.4531 23.4232 38.5813 23.0269C38.8165 22.9576 38.9789 22.7428 38.9813 22.4975V21.7558C38.9805 21.5981 38.912 21.4485 38.7933 21.3447V20.2724C38.7933 20.2724 39.0165 18.6035 36.7243 18.6035C34.4319 18.6035 34.6554 20.2724 34.6554 20.2724V21.3447C34.5367 21.4484 34.4681 21.5981 34.4673 21.7558V22.4975C34.4683 22.6874 34.5665 22.8635 34.7274 22.9642C34.8528 23.4699 35.0847 23.943 35.4077 24.3518V25.0295C35.407 25.278 35.2698 25.5059 35.0505 25.6227L33.3726 26.525C32.89 26.7821 32.5879 27.2838 32.5864 27.8306V28.4312H40.8622V27.8669C40.8604 27.3008 40.537 26.7849 40.0282 26.5366Z" fill="#003278"/>
</g>
<circle cx="3.5" cy="19.5" r="3.5" fill="#FFCC00"/>
<defs>
<clipPath id="clip0_1_262">
<rect width="30" height="30" fill="white" transform="translate(30 8)"/>
</clipPath>
</defs>
</svg>
