<svg width="50" height="50" viewBox="0 0 50 50" fill="none" xmlns="http://www.w3.org/2000/svg">
<path d="M49.3603 29.9029C49.1091 29.6512 48.7941 29.4726 48.4491 29.3863C48.1041 29.3001 47.7421 29.3094 47.4019 29.4133C43.6677 30.5422 39.6972 30.6369 35.9135 29.6872C32.1297 28.7375 28.6745 26.7791 25.916 24.0206C23.1575 21.2621 21.1991 17.8069 20.2494 14.0231C19.2997 10.2394 19.3943 6.26887 20.5232 2.53468C20.628 2.19442 20.6381 1.83203 20.5523 1.48649C20.4665 1.14096 20.2881 0.825343 20.0364 0.573593C19.7846 0.321844 19.469 0.143486 19.1235 0.0576998C18.7779 -0.0280859 18.4155 -0.0180532 18.0753 0.0867188C12.9126 1.66821 8.38019 4.83771 5.12308 9.14418C2.27465 12.9259 0.537182 17.427 0.105875 22.1418C-0.325432 26.8566 0.566509 31.5982 2.68149 35.834C4.79647 40.0698 8.0507 43.632 12.0786 46.1202C16.1064 48.6085 20.7484 49.9243 25.4828 49.9199C31.0063 49.9369 36.3828 48.1413 40.7875 44.8085C45.094 41.5514 48.2635 37.0191 49.845 31.8564C49.9486 31.5174 49.9582 31.1566 49.8728 30.8126C49.7875 30.4686 49.6103 30.1542 49.3603 29.9029ZM38.4326 41.68C34.2846 44.8043 29.1477 46.325 23.9674 45.9623C18.7872 45.5996 13.9123 43.3778 10.2402 39.706C6.56805 36.0342 4.34588 31.1595 3.98274 25.9793C3.61959 20.7991 5.13991 15.662 8.26382 11.5138C10.2991 8.82609 12.9303 6.64737 15.9504 5.1491C15.7784 6.3565 15.6917 7.57453 15.691 8.79412C15.6981 15.544 18.3826 22.0154 23.1556 26.7883C27.9285 31.5612 34.3999 34.2458 41.1498 34.2529C42.3719 34.2525 43.5924 34.1658 44.8022 33.9934C43.3025 37.0141 41.1221 39.6454 38.4326 41.68Z" fill="black"/>
</svg>
