<svg width="45" height="38" viewBox="0 0 45 38" fill="none" xmlns="http://www.w3.org/2000/svg">
<circle cx="19" cy="19" r="19" fill="#003278"/>
<g clip-path="url(#clip0_1_263)">
<path d="M45 17.0689V33.1034C45.0002 33.6522 44.7822 34.1785 44.3942 34.5666C44.0061 34.9546 43.4798 35.1725 42.9311 35.1724H17.0689C16.5202 35.1725 15.9939 34.9546 15.6058 34.5666C15.2178 34.1786 14.9998 33.6522 15 33.1035V17.0689C14.9998 16.5202 15.2178 15.9939 15.6058 15.6058C15.9939 15.2177 16.5202 14.9998 17.0689 15H26.3793" fill="#9FC9D3"/>
<g style="mix-blend-mode:multiply" opacity="0.53">
<path d="M18 17.5C17.8123 20.1478 17.965 32.3956 18 32C18.0002 32.5488 18 32.5 18.5 33C19.5 34 20.5488 35.1725 20 35.1724H17.0689C16.5202 35.1725 15.9939 34.9546 15.6058 34.5666C15.2178 34.1786 14.9998 33.6522 15 33.1035V17.0689C14.9998 16.5202 15.2178 15.9939 15.6058 15.6058C15.9939 15.2177 16.5202 14.9998 17.0689 15C17.0689 15 19 15 20 15" fill="#84CCFD"/>
</g>
<path d="M44.4854 14.381C44.7978 14.5292 44.9977 14.8431 45 15.1889V19.9306C44.9447 24.2599 42.8949 28.3216 39.4449 30.9376L36.3774 33.3659C35.9737 33.6828 35.4057 33.6828 35.002 33.3659L31.9345 30.9376C28.4845 28.3215 26.4346 24.2599 26.3793 19.9306V15.1889C26.3816 14.8431 26.5816 14.5292 26.894 14.381L34.8569 10.5184C35.383 10.2641 35.9964 10.2641 36.5224 10.5184L44.4854 14.381Z" fill="#24AE5F"/>
<path d="M35.6896 24.8104C38.2606 24.8104 40.3448 22.7355 40.3448 20.176C40.3448 17.6164 38.2606 15.5415 35.6896 15.5415C33.1187 15.5415 31.0345 17.6164 31.0345 20.176C31.0345 22.7355 33.1187 24.8104 35.6896 24.8104Z" fill="white"/>
<path d="M34.8433 22.1773C34.7061 22.1775 34.5744 22.1229 34.4776 22.0258L33.631 21.1792C33.429 20.9772 33.429 20.6497 33.631 20.4478C33.8329 20.2458 34.1604 20.2458 34.3624 20.4478L34.8433 20.9287L37.0168 18.7551C37.2191 18.5549 37.5451 18.5557 37.7464 18.7569C37.9476 18.9582 37.9485 19.2842 37.7482 19.4865L35.209 22.0257C35.1121 22.1229 34.9805 22.1775 34.8433 22.1773Z" fill="#24AE5F"/>
<path d="M25.8621 31.0174H17.7034C17.4178 31.0174 17.1862 30.7859 17.1862 30.5002C17.1862 30.2145 17.4177 29.9829 17.7034 29.9829H25.8621C26.1477 29.9829 26.3793 30.2145 26.3793 30.5002C26.3793 30.7859 26.1478 31.0174 25.8621 31.0174Z" fill="#003278"/>
<path d="M21.7242 33.0863H17.7034C17.4178 33.0863 17.1862 32.8547 17.1862 32.569C17.1862 32.2833 17.4177 32.0518 17.7034 32.0518H21.7242C22.0098 32.0518 22.2415 32.2833 22.2415 32.569C22.2415 32.8547 22.0098 33.0863 21.7242 33.0863Z" fill="#003278"/>
<path d="M25.0282 26.5366L23.2316 25.6511C23.0005 25.5383 22.8536 25.3039 22.8528 25.0468V24.3518C22.9131 24.2829 22.9698 24.211 23.0228 24.1363C23.2648 23.7974 23.4531 23.4232 23.5813 23.0269C23.8165 22.9576 23.9789 22.7428 23.9813 22.4975V21.7558C23.9805 21.5981 23.912 21.4485 23.7933 21.3447V20.2724C23.7933 20.2724 24.0165 18.6035 21.7243 18.6035C19.4319 18.6035 19.6554 20.2724 19.6554 20.2724V21.3447C19.5367 21.4484 19.4681 21.5981 19.4673 21.7558V22.4975C19.4683 22.6874 19.5665 22.8635 19.7274 22.9642C19.8528 23.4699 20.0847 23.943 20.4077 24.3518V25.0295C20.407 25.278 20.2698 25.5059 20.0505 25.6227L18.3726 26.525C17.89 26.7821 17.5879 27.2838 17.5864 27.8306V28.4312H25.8622V27.8669C25.8604 27.3008 25.537 26.7849 25.0282 26.5366Z" fill="#003278"/>
</g>
<defs>
<clipPath id="clip0_1_263">
<rect width="30" height="30" fill="white" transform="translate(15 8)"/>
</clipPath>
</defs>
</svg>
