<svg width="38" height="38" viewBox="0 0 38 38" fill="none" xmlns="http://www.w3.org/2000/svg">
<path fill-rule="evenodd" clip-rule="evenodd" d="M13.5084 4.64997C16.9678 2.63993 21.2199 2.67506 24.6468 4.742C28.04 6.85103 30.1023 10.615 30.0831 14.664C30.0041 18.6865 27.7927 22.4676 25.0285 25.3906C23.4331 27.0852 21.6483 28.5837 19.7107 29.8555C19.5111 29.9709 19.2925 30.0481 19.0657 30.0834C18.8474 30.0741 18.6347 30.0096 18.447 29.8957C15.4888 27.9848 12.8936 25.5456 10.7862 22.6955C9.02276 20.3164 8.0209 17.4421 7.91666 14.4629C7.91437 10.4061 10.049 6.66001 13.5084 4.64997ZM15.5074 16.1418C16.0893 17.5764 17.4629 18.5122 18.9867 18.5122C19.985 18.5193 20.9446 18.1195 21.6518 17.4017C22.3589 16.6839 22.7548 15.7078 22.7513 14.6908C22.7566 13.1386 21.8428 11.7362 20.4365 11.1385C19.0302 10.5407 17.4088 10.8655 16.3294 11.9611C15.25 13.0568 14.9255 14.7072 15.5074 16.1418Z" fill="white"/>
<ellipse opacity="0.4" cx="19" cy="33.2501" rx="7.91667" ry="1.58333" fill="white"/>
</svg>
