<svg width="86" height="21" viewBox="0 0 86 21" fill="none" xmlns="http://www.w3.org/2000/svg">
<path d="M0.434659 16V1.45455H3.0696V13.7912H9.47585V16H0.434659ZM16.4077 16.2131C15.3423 16.2131 14.419 15.9787 13.6378 15.5099C12.8565 15.0412 12.2505 14.3854 11.8196 13.5426C11.3935 12.6998 11.1804 11.715 11.1804 10.5881C11.1804 9.46117 11.3935 8.47396 11.8196 7.62642C12.2505 6.77888 12.8565 6.12074 13.6378 5.65199C14.419 5.18324 15.3423 4.94886 16.4077 4.94886C17.473 4.94886 18.3963 5.18324 19.1776 5.65199C19.9588 6.12074 20.5625 6.77888 20.9886 7.62642C21.4195 8.47396 21.6349 9.46117 21.6349 10.5881C21.6349 11.715 21.4195 12.6998 20.9886 13.5426C20.5625 14.3854 19.9588 15.0412 19.1776 15.5099C18.3963 15.9787 17.473 16.2131 16.4077 16.2131ZM16.4219 14.1534C16.9995 14.1534 17.4825 13.9948 17.8707 13.6776C18.259 13.3556 18.5478 12.9247 18.7372 12.3849C18.9313 11.8452 19.0284 11.2438 19.0284 10.581C19.0284 9.91335 18.9313 9.30966 18.7372 8.76989C18.5478 8.22538 18.259 7.79214 17.8707 7.47017C17.4825 7.1482 16.9995 6.98722 16.4219 6.98722C15.83 6.98722 15.3376 7.1482 14.9446 7.47017C14.5563 7.79214 14.2652 8.22538 14.071 8.76989C13.8816 9.30966 13.7869 9.91335 13.7869 10.581C13.7869 11.2438 13.8816 11.8452 14.071 12.3849C14.2652 12.9247 14.5563 13.3556 14.9446 13.6776C15.3376 13.9948 15.83 14.1534 16.4219 14.1534ZM28.5614 20.3182C27.6381 20.3182 26.8451 20.1927 26.1822 19.9418C25.5193 19.6955 24.9866 19.3641 24.5842 18.9474C24.1817 18.5308 23.9023 18.0691 23.7461 17.5625L26.0614 17.0014C26.1656 17.2145 26.3171 17.4252 26.516 17.6335C26.7148 17.8466 26.9824 18.0218 27.3185 18.1591C27.6594 18.3011 28.0879 18.3722 28.604 18.3722C29.3332 18.3722 29.9369 18.1946 30.4151 17.8395C30.8933 17.4891 31.1325 16.9115 31.1325 16.1065V14.0398H31.0046C30.872 14.3049 30.6779 14.5772 30.4222 14.8565C30.1713 15.1359 29.8375 15.3703 29.4208 15.5597C29.0089 15.7491 28.4904 15.8438 27.8654 15.8438C27.0273 15.8438 26.2674 15.6473 25.5856 15.2543C24.9085 14.8565 24.3687 14.2647 23.9663 13.4787C23.5685 12.688 23.3697 11.6984 23.3697 10.5099C23.3697 9.31203 23.5685 8.30114 23.9663 7.47727C24.3687 6.64867 24.9109 6.02131 25.5927 5.59517C26.2745 5.1643 27.0344 4.94886 27.8725 4.94886C28.5117 4.94886 29.0373 5.05777 29.4492 5.27557C29.8659 5.48864 30.1973 5.74669 30.4435 6.04972C30.6897 6.34801 30.8768 6.62973 31.0046 6.89489H31.1467V5.09091H33.6822V16.1776C33.6822 17.1103 33.4596 17.8821 33.0146 18.4929C32.5695 19.1037 31.9611 19.5606 31.1893 19.8636C30.4175 20.1667 29.5415 20.3182 28.5614 20.3182ZM28.5827 13.8267C29.1272 13.8267 29.5913 13.6941 29.9748 13.429C30.3583 13.1638 30.6495 12.7827 30.8484 12.2855C31.0472 11.7884 31.1467 11.1918 31.1467 10.4957C31.1467 9.80919 31.0472 9.20786 30.8484 8.69176C30.6542 8.17566 30.3654 7.77557 29.9819 7.49148C29.6031 7.20265 29.1367 7.05824 28.5827 7.05824C28.0098 7.05824 27.5316 7.20739 27.1481 7.50568C26.7646 7.80398 26.4757 8.21354 26.2816 8.73438C26.0875 9.25047 25.9904 9.83759 25.9904 10.4957C25.9904 11.1634 26.0875 11.7481 26.2816 12.25C26.4805 12.7472 26.7717 13.1354 27.1552 13.4148C27.5434 13.6894 28.0193 13.8267 28.5827 13.8267ZM36.3171 16V5.09091H38.8881V16H36.3171ZM37.6097 3.54261C37.2025 3.54261 36.8522 3.40767 36.5586 3.13778C36.265 2.86316 36.1183 2.53409 36.1183 2.15057C36.1183 1.76231 36.265 1.43324 36.5586 1.16335C36.8522 0.88873 37.2025 0.75142 37.6097 0.75142C38.0217 0.75142 38.372 0.88873 38.6609 1.16335C38.9544 1.43324 39.1012 1.76231 39.1012 2.15057C39.1012 2.53409 38.9544 2.86316 38.6609 3.13778C38.372 3.40767 38.0217 3.54261 37.6097 3.54261ZM50.1541 7.97443L47.8104 8.23011C47.7441 7.99337 47.6281 7.77083 47.4624 7.5625C47.3014 7.35417 47.0836 7.18608 46.8089 7.05824C46.5343 6.9304 46.1982 6.86648 45.8004 6.86648C45.2654 6.86648 44.8156 6.98248 44.451 7.21449C44.0911 7.4465 43.9136 7.74716 43.9183 8.11648C43.9136 8.43371 44.0296 8.69176 44.2663 8.89062C44.5078 9.08949 44.9055 9.25284 45.4595 9.38068L47.3203 9.77841C48.3525 10.0009 49.1196 10.3537 49.6214 10.8366C50.1281 11.3196 50.3838 11.9517 50.3885 12.733C50.3838 13.4195 50.1825 14.0256 49.7848 14.5511C49.3918 15.072 48.8449 15.4792 48.1442 15.7727C47.4434 16.0663 46.6385 16.2131 45.7294 16.2131C44.3942 16.2131 43.3194 15.9337 42.505 15.375C41.6906 14.8116 41.2053 14.0279 41.049 13.0241L43.5561 12.7827C43.6697 13.2751 43.9112 13.6468 44.2805 13.8977C44.6499 14.1487 45.1304 14.2741 45.7223 14.2741C46.3331 14.2741 46.8232 14.1487 47.1925 13.8977C47.5665 13.6468 47.7536 13.3366 47.7536 12.9673C47.7536 12.6548 47.6328 12.3968 47.3913 12.1932C47.1546 11.9896 46.7853 11.8333 46.2834 11.7244L44.4226 11.3338C43.3762 11.116 42.602 10.7491 42.1001 10.233C41.5982 9.71212 41.3497 9.05398 41.3544 8.25852C41.3497 7.58617 41.532 7.00379 41.9013 6.51136C42.2753 6.0142 42.7938 5.63068 43.4567 5.3608C44.1243 5.08617 44.8937 4.94886 45.7649 4.94886C47.0433 4.94886 48.0495 5.22112 48.7834 5.76562C49.522 6.31013 49.9789 7.0464 50.1541 7.97443ZM57.956 5.09091V7.07955H51.6847V5.09091H57.956ZM53.233 2.47727H55.804V12.7188C55.804 13.0644 55.8561 13.3295 55.9602 13.5142C56.0691 13.6941 56.2112 13.8172 56.3864 13.8835C56.5616 13.9498 56.7557 13.983 56.9688 13.983C57.1297 13.983 57.2765 13.9711 57.4091 13.9474C57.5464 13.9238 57.6506 13.9025 57.7216 13.8835L58.1548 15.8935C58.0175 15.9408 57.821 15.9929 57.5653 16.0497C57.3144 16.1065 57.0066 16.1397 56.642 16.1491C55.9981 16.1681 55.4181 16.071 54.902 15.858C54.3859 15.6402 53.9763 15.304 53.6733 14.8494C53.375 14.3949 53.2282 13.8267 53.233 13.1449V2.47727ZM60.1062 16V5.09091H62.6772V16H60.1062ZM61.3988 3.54261C60.9916 3.54261 60.6412 3.40767 60.3477 3.13778C60.0541 2.86316 59.9073 2.53409 59.9073 2.15057C59.9073 1.76231 60.0541 1.43324 60.3477 1.16335C60.6412 0.88873 60.9916 0.75142 61.3988 0.75142C61.8107 0.75142 62.1611 0.88873 62.4499 1.16335C62.7435 1.43324 62.8903 1.76231 62.8903 2.15057C62.8903 2.53409 62.7435 2.86316 62.4499 3.13778C62.1611 3.40767 61.8107 3.54261 61.3988 3.54261ZM70.0795 16.2131C68.9905 16.2131 68.0554 15.974 67.2741 15.4957C66.4976 15.0175 65.8987 14.357 65.4773 13.5142C65.0606 12.6667 64.8523 11.6913 64.8523 10.5881C64.8523 9.48011 65.0653 8.50237 65.4915 7.65483C65.9176 6.80256 66.5189 6.13968 67.2955 5.66619C68.0767 5.18797 69 4.94886 70.0653 4.94886C70.9508 4.94886 71.7344 5.11222 72.4162 5.43892C73.1027 5.76089 73.6496 6.2178 74.0568 6.80966C74.464 7.39678 74.696 8.08333 74.7528 8.86932H72.2955C72.196 8.34375 71.9593 7.90578 71.5852 7.5554C71.2159 7.20028 70.7211 7.02273 70.1009 7.02273C69.5753 7.02273 69.1136 7.16477 68.7159 7.44886C68.3182 7.72822 68.008 8.13068 67.7855 8.65625C67.5677 9.18182 67.4588 9.81155 67.4588 10.5455C67.4588 11.2888 67.5677 11.928 67.7855 12.4631C68.0033 12.9934 68.3087 13.4029 68.7017 13.6918C69.0994 13.9759 69.5658 14.1179 70.1009 14.1179C70.4796 14.1179 70.8182 14.0469 71.1165 13.9048C71.4195 13.758 71.6728 13.5473 71.8764 13.2727C72.08 12.9981 72.2197 12.6643 72.2955 12.2713H74.7528C74.6913 13.0431 74.464 13.7273 74.071 14.3239C73.678 14.9157 73.143 15.3797 72.4659 15.7159C71.7888 16.0473 70.9934 16.2131 70.0795 16.2131ZM85.4862 7.97443L83.1424 8.23011C83.0761 7.99337 82.9601 7.77083 82.7944 7.5625C82.6334 7.35417 82.4156 7.18608 82.141 7.05824C81.8664 6.9304 81.5302 6.86648 81.1325 6.86648C80.5974 6.86648 80.1476 6.98248 79.783 7.21449C79.4232 7.4465 79.2456 7.74716 79.2504 8.11648C79.2456 8.43371 79.3616 8.69176 79.5984 8.89062C79.8398 9.08949 80.2376 9.25284 80.7915 9.38068L82.6523 9.77841C83.6845 10.0009 84.4516 10.3537 84.9535 10.8366C85.4601 11.3196 85.7158 11.9517 85.7205 12.733C85.7158 13.4195 85.5146 14.0256 85.1168 14.5511C84.7238 15.072 84.177 15.4792 83.4762 15.7727C82.7754 16.0663 81.9705 16.2131 81.0614 16.2131C79.7262 16.2131 78.6514 15.9337 77.837 15.375C77.0226 14.8116 76.5373 14.0279 76.381 13.0241L78.8881 12.7827C79.0018 13.2751 79.2433 13.6468 79.6126 13.8977C79.9819 14.1487 80.4625 14.2741 81.0543 14.2741C81.6651 14.2741 82.1552 14.1487 82.5245 13.8977C82.8986 13.6468 83.0856 13.3366 83.0856 12.9673C83.0856 12.6548 82.9648 12.3968 82.7234 12.1932C82.4866 11.9896 82.1173 11.8333 81.6154 11.7244L79.7546 11.3338C78.7082 11.116 77.9341 10.7491 77.4322 10.233C76.9303 9.71212 76.6817 9.05398 76.6864 8.25852C76.6817 7.58617 76.864 7.00379 77.2333 6.51136C77.6074 6.0142 78.1258 5.63068 78.7887 5.3608C79.4563 5.08617 80.2257 4.94886 81.0969 4.94886C82.3754 4.94886 83.3815 5.22112 84.1154 5.76562C84.854 6.31013 85.311 7.0464 85.4862 7.97443Z" fill="#4267B2"/>
</svg>
