<svg width="37" height="37" viewBox="0 0 37 37" fill="none" xmlns="http://www.w3.org/2000/svg">
<path opacity="0.4" d="M10.9929 9.7611C10.9929 6.08201 14.0847 3.0874 17.8849 3.0874H25.4386C29.2295 3.0874 32.3136 6.07451 32.3136 9.74609V26.4318C32.3136 30.1124 29.2233 33.1085 25.4231 33.1085H17.8694C14.0785 33.1085 10.9929 30.1199 10.9929 26.4469V25.0359V9.7611Z" fill="white"/>
<path d="M24.1139 17.2782L19.6589 12.9116C19.1985 12.4613 18.4575 12.4613 17.9986 12.9146C17.5412 13.3679 17.5427 14.0989 18.0016 14.5492L20.4411 16.9404H4.96749C4.31952 16.9404 3.79352 17.4583 3.79352 18.0977C3.79352 18.7357 4.31952 19.252 4.96749 19.252H20.4411L18.0016 21.6447C17.5427 22.095 17.5412 22.8261 17.9986 23.2794C18.2288 23.506 18.5292 23.6201 18.831 23.6201C19.1299 23.6201 19.4302 23.506 19.6589 23.2824L24.1139 18.9158C24.335 18.6982 24.46 18.404 24.46 18.0977C24.46 17.79 24.335 17.4958 24.1139 17.2782Z" fill="white"/>
</svg>
