<svg width="95" height="28" viewBox="0 0 95 28" fill="none" xmlns="http://www.w3.org/2000/svg">
<path d="M5.29261 0.818181H11.0966L15.7372 19.7898H16.044L26.9489 0.818181H32.7528L28.4062 27H23.8551L26.8466 9.01278H26.6165L16.3892 26.9233H13.0014L8.7571 8.97443H8.5142L5.49716 27H0.946023L5.29261 0.818181ZM41.983 27.3835C40.0483 27.3835 38.4375 26.9574 37.1506 26.1051C35.8722 25.2528 34.973 24.0554 34.4531 22.5128C33.9332 20.9702 33.8395 19.1804 34.1719 17.1435C34.5043 15.1321 35.169 13.3722 36.1662 11.8636C37.1719 10.3551 38.4375 9.1875 39.9631 8.3608C41.4972 7.52557 43.2145 7.10795 45.1151 7.10795C47.0497 7.10795 48.6563 7.53835 49.9347 8.39915C51.2131 9.25142 52.1122 10.4489 52.6321 11.9915C53.1605 13.5341 53.2585 15.3324 52.9261 17.3864C52.6023 19.3892 51.9332 21.1406 50.919 22.6406C49.9134 24.1406 48.6477 25.3082 47.1222 26.1435C45.5966 26.9702 43.8835 27.3835 41.983 27.3835ZM42.3665 23.6761C43.4403 23.6761 44.3821 23.3864 45.1918 22.8068C46.0099 22.2187 46.679 21.4304 47.1989 20.4418C47.7273 19.4446 48.0938 18.3366 48.2983 17.1179C48.4858 15.9418 48.4901 14.8764 48.3111 13.9219C48.1321 12.9588 47.7486 12.196 47.1605 11.6335C46.581 11.0625 45.7756 10.777 44.7443 10.777C43.6705 10.777 42.7202 11.0753 41.8935 11.6719C41.0753 12.2599 40.4063 13.0526 39.8864 14.0497C39.3665 15.0384 39.0085 16.142 38.8125 17.3608C38.6165 18.5369 38.608 19.6023 38.7869 20.5568C38.9659 21.5114 39.3494 22.2699 39.9375 22.8324C40.5256 23.3949 41.3352 23.6761 42.3665 23.6761ZM75.4134 7.36364L65.1477 27H60.0341L56.3139 7.36364H61.0696L63.1662 21.9503H63.3707L70.3125 7.36364H75.4134ZM83.3171 27.3835C81.3484 27.3835 79.7205 26.9744 78.4336 26.1562C77.1467 25.3295 76.2433 24.1619 75.7234 22.6534C75.212 21.1364 75.1268 19.3509 75.4677 17.2969C75.8001 15.277 76.4776 13.5043 77.5004 11.9787C78.5231 10.4446 79.8015 9.25142 81.3356 8.39915C82.8782 7.53835 84.5827 7.10795 86.4492 7.10795C87.6594 7.10795 88.7717 7.30398 89.7859 7.69602C90.8001 8.07954 91.6566 8.67614 92.3555 9.4858C93.0543 10.2955 93.5359 11.3267 93.8001 12.5795C94.0643 13.8239 94.0515 15.3068 93.7617 17.0284L93.5444 18.4474H77.4364L77.935 15.3281H89.5941C89.7475 14.4418 89.6964 13.6534 89.4407 12.9631C89.185 12.2642 88.7589 11.7145 88.1623 11.3139C87.5657 10.9134 86.82 10.7131 85.9251 10.7131C85.0131 10.7131 84.1609 10.9474 83.3683 11.4162C82.5842 11.8764 81.9237 12.473 81.3867 13.206C80.8498 13.9389 80.5089 14.7102 80.364 15.5199L79.8398 18.5114C79.6523 19.7386 79.695 20.7401 79.9677 21.5156C80.2404 22.2912 80.7177 22.8622 81.3995 23.2287C82.0813 23.5952 82.9421 23.7784 83.9819 23.7784C84.6637 23.7784 85.2944 23.6847 85.8739 23.4972C86.4535 23.3097 86.9691 23.0284 87.4208 22.6534C87.881 22.2699 88.2646 21.8011 88.5714 21.2472L92.8029 21.733C92.3342 22.875 91.6481 23.8722 90.7447 24.7244C89.8413 25.5682 88.7589 26.2244 87.4975 26.6932C86.2447 27.1534 84.8512 27.3835 83.3171 27.3835Z" fill="#F94D53"/>
</svg>
