<svg width="49" height="38" viewBox="0 0 49 38" fill="none" xmlns="http://www.w3.org/2000/svg">
<circle cx="19" cy="19" r="19" fill="#0CD5B0"/>
<path d="M46.75 6.5H15.25C14.0093 6.5 13 7.50934 13 8.75V31.25C13 32.4907 14.0093 33.5 15.25 33.5H46.75C47.9907 33.5 49 32.4907 49 31.25V8.75C49 7.50934 47.9907 6.5 46.75 6.5Z" fill="#003278"/>
<path d="M49 8.75V31.25C49 32.491 47.9903 33.5 46.75 33.5H43.375C44.6153 33.5 45.625 32.491 45.625 31.25V8.75C45.625 7.50898 44.6153 6.5 43.375 6.5H46.75C47.9903 6.5 49 7.50898 49 8.75Z" fill="#0F4B9F"/>
<path d="M48.4375 11H13.5625C13.2519 11 13 11.2519 13 11.5625V16.0625C13 16.3731 13.2519 16.625 13.5625 16.625H48.4375C48.7481 16.625 49 16.3731 49 16.0625V11.5625C49 11.2519 48.7481 11 48.4375 11Z" fill="#F1CC76"/>
<path d="M49 11.5625V16.0625C49 16.3733 48.7483 16.625 48.4375 16.625H45.0625C45.3733 16.625 45.625 16.3733 45.625 16.0625V11.5625C45.625 11.2517 45.3733 11 45.0625 11H48.4375C48.7483 11 49 11.2517 49 11.5625Z" fill="#EBB15D"/>
<path d="M28.1875 21.6875H16.375C16.0644 21.6875 15.8125 21.4356 15.8125 21.125C15.8125 20.8144 16.0644 20.5625 16.375 20.5625H28.1875C28.4981 20.5625 28.75 20.8144 28.75 21.125C28.75 21.4356 28.4981 21.6875 28.1875 21.6875Z" fill="#EDEBFD"/>
<path d="M24.8125 25.0625H16.375C16.0644 25.0625 15.8125 24.8106 15.8125 24.5C15.8125 24.1894 16.0644 23.9375 16.375 23.9375H24.8125C25.1231 23.9375 25.375 24.1894 25.375 24.5C25.375 24.8106 25.1231 25.0625 24.8125 25.0625Z" fill="#EDEBFD"/>
<path d="M45.625 30.125H16.375C16.0644 30.125 15.8125 29.8731 15.8125 29.5625C15.8125 29.2519 16.0644 29 16.375 29H45.625C45.9356 29 46.1875 29.2519 46.1875 29.5625C46.1875 29.8731 45.9356 30.125 45.625 30.125Z" fill="#EDEBFD"/>
<path d="M43.1641 25.625H40.2109C39.4743 25.625 38.875 25.0257 38.875 24.2891V21.3359C38.875 20.5993 39.4743 20 40.2109 20H43.1641C43.9007 20 44.5 20.5993 44.5 21.3359V24.2891C44.5 25.0257 43.9007 25.625 43.1641 25.625Z" fill="#F1CC76"/>
<path d="M43.1641 20H41.4766C42.2134 20 42.8125 20.5991 42.8125 21.3359V24.2891C42.8125 25.0259 42.2134 25.625 41.4766 25.625H43.1641C43.9009 25.625 44.5 25.0259 44.5 24.2891V21.3359C44.5 20.5991 43.9009 20 43.1641 20Z" fill="#EBB15D"/>
</svg>
